# xmcd
#
# Track frame offsets:
#	150
#	14705
#	39224
#	60280
#	81391
#	99269
#	120049
#	141617
#	159564
#	175829
#	203188
#
# Disc length: 3022 seconds
#
# Revision: 0
# Processed by: cddbd v1.5.2PL0 Copyright (c) Steve Scherf et al.
# Submitted via: audiograbber 1.83.01
#
DISCID=880bcc0b
DTITLE=Calvin Russell - Dream Of The Dog
DYEAR=1995
DGENRE=Southern Rock
TTITLE0=Don't Turn Your Head
TTITLE1=Trouble
TTITLE2=Valley Far Below
TTITLE3=We Can Live Together
TTITLE4=I Gave My Soul To You
TTITLE5=So Blue (About You)
TTITLE6=You'll Get Yours
TTITLE7=The Answer?
TTITLE8=It's My Life
TTITLE9=All We Got Is Rock 'n' Roll
TTITLE10=Keepin' The Demon Down
EXTD=
EXTT0=
EXTT1=
EXTT2=
EXTT3=
EXTT4=
EXTT5=
EXTT6=
EXTT7=
EXTT8=
EXTT9=
EXTT10=
PLAYORDER=
